# xmcd
#
# Track frame offsets: 
#        150
#        37751
#        59693
#        87626
#        111114
#        131888
#        157138
#        202257
#        213457
#        234760
#        253027
#        270944
#        296787
#        312769
#        337000
#
# Disc length: 4696 seconds
#
# Revision: 0
# Processed by: cddbd v1.5.2PL0 Copyright (c) Steve Scherf et al.
# Submitted via: ExactAudioCopyFreeDBPlugin 1.0
#
DISCID=e812560f
DTITLE=Willy Michl - Best of Willy Michl - Blues Infusion Vol. 1
DYEAR=2015
DGENRE=Bavarian Blues
TTITLE0=Epilog
TTITLE1=Blütental der Ewigkeit
TTITLE2=Drah Di Net Um
TTITLE3=1000-jähriger Eskimo
TTITLE4=Die 5 Dimensionen
TTITLE5=Bluesman
TTITLE6=Wintermorgen
TTITLE7=Wiudpferdl
TTITLE8=Isarflimmern 79
TTITLE9=Waxenstein Blues
TTITLE10=Blues Goes To Mountain
TTITLE11=Ich Lieb Nur Dich
TTITLE12=Willy's Liebeslied
TTITLE13=Ois Is Blues
TTITLE14=Regentropfen Blues
EXTD=
EXTT0=
EXTT1=
EXTT2=
EXTT3=
EXTT4=
EXTT5=
EXTT6=
EXTT7=
EXTT8=
EXTT9=
EXTT10=
EXTT11=
EXTT12=
EXTT13=
EXTT14=
PLAYORDER=
